<svg width="74" height="75" viewBox="0 0 74 75" fill="none" xmlns="http://www.w3.org/2000/svg">
<path d="M6.87598 13.4863L6.87598 50.9738H28.967C29.1907 50.9738 29.3997 51.0857 29.524 51.2722L37 62.4863L44.4759 51.2722C44.6002 51.0862 44.8092 50.9738 45.033 50.9738H67.1239V13.4863H6.87598ZM44.2178 45.3651C44.0906 45.5248 43.8979 45.618 43.6937 45.618H30.3047C30.1006 45.618 29.9079 45.5252 29.7807 45.3651C29.654 45.2053 29.6066 44.9964 29.652 44.798L32.5831 32.0957C30.7292 30.7066 29.6353 28.5378 29.6353 26.2043C29.6353 22.1438 32.9383 18.8407 36.9989 18.8407C41.0594 18.8407 44.3624 22.1438 44.3624 26.2043C44.3624 28.5376 43.2684 30.7066 41.4141 32.0962L44.3452 44.7985C44.3911 44.9969 44.3437 45.2058 44.217 45.3651L44.2178 45.3651Z" fill="#3E3E3E"/>
</svg>
