<svg width="74" height="74" viewBox="0 0 74 74" fill="none" xmlns="http://www.w3.org/2000/svg">
<path d="M56.3581 19.7673H56.2492C49.2891 19.7673 42.5465 16.8686 37.8158 11.8221C37.3807 11.3926 36.5652 11.3926 36.1844 11.8221C31.4538 16.8682 24.7111 19.7673 17.7509 19.7673H17.6421C17.0439 19.7673 16.5 20.2504 16.5 20.8949V33.0813C16.5 43.1203 21.5568 52.4614 29.9852 58.0445L36.3472 62.2854C36.5103 62.3929 36.728 62.5 36.9996 62.5C37.2716 62.5 37.4347 62.4465 37.652 62.2854L44.014 58.0445C52.4424 52.4616 57.4992 43.1203 57.4992 33.0813L57.5 20.8412C57.4454 20.2507 56.9561 19.7676 56.3579 19.7676L56.3581 19.7673ZM46.081 33.1885L36.5652 43.3885C36.0759 43.9255 35.369 44.1936 34.6619 44.1936C33.9548 44.1936 33.2482 43.8716 32.7585 43.3885L27.9733 38.2886C26.9948 37.215 27.049 35.6044 28.1364 34.6382C29.2239 33.6721 30.8552 33.7256 31.8338 34.7992L34.7157 37.8595L42.3282 29.7532C43.3068 28.6796 44.9381 28.6256 46.0256 29.5922C47.0053 30.5044 47.0599 32.115 46.0809 33.1886L46.081 33.1885Z" fill="#3E3E3E"/>
</svg>
