<svg width="74" height="74" viewBox="0 0 74 74" fill="none" xmlns="http://www.w3.org/2000/svg">
<path fill-rule="evenodd" clip-rule="evenodd" d="M55.1255 45.6708H18.8772V45.6675C18.2048 45.6675 17.5947 45.2129 17.4274 44.5339L12.5652 25.0466C12.4964 24.82 12.479 24.572 12.5277 24.3236C12.6855 23.5146 13.4706 22.9866 14.2808 23.1445L27.0037 25.6228L35.7355 12.1994C35.8482 12.0196 35.9999 11.862 36.189 11.7404C36.8803 11.2923 37.8028 11.4891 38.2519 12.1776L46.9975 25.6224L59.7204 23.1441V23.1456C59.9269 23.1049 60.1458 23.1082 60.3633 23.1612C61.164 23.358 61.6535 24.1652 61.4564 24.9648L56.5988 44.4353C56.477 45.138 55.8639 45.6722 55.1239 45.6722L55.1255 45.6708ZM56.0124 50.8497L59.2418 60.4135C59.32 60.5961 59.3637 60.7944 59.3637 61.0054C59.3637 61.8315 58.6942 62.5 57.8669 62.5H16.1337V62.4953C15.9773 62.4953 15.8177 62.4702 15.6613 62.4172C14.8795 62.1565 14.4587 61.3114 14.7198 60.5322L17.9512 50.962C18.1123 50.3109 18.7017 49.8283 19.4039 49.8283H54.5974V49.833C55.2214 49.833 55.8032 50.2267 56.0113 50.8498L56.0124 50.8497Z" fill="#9B9B9B"/>
</svg>
