<svg width="32" height="32" viewBox="0 0 32 32" fill="none" xmlns="http://www.w3.org/2000/svg">
<path d="M12.1502 6.83398H19.8502C22.7835 6.83398 25.1668 9.21732 25.1668 12.1507V19.8507C25.1668 21.2607 24.6067 22.613 23.6096 23.6101C22.6125 24.6072 21.2602 25.1673 19.8502 25.1673H12.1502C9.21683 25.1673 6.8335 22.784 6.8335 19.8507V12.1507C6.8335 10.7406 7.39364 9.38827 8.39071 8.3912C9.38778 7.39413 10.7401 6.83398 12.1502 6.83398ZM11.9668 8.66732C11.0916 8.66732 10.2522 9.015 9.63338 9.63387C9.01451 10.2527 8.66683 11.0921 8.66683 11.9673V20.034C8.66683 21.8582 10.1427 23.334 11.9668 23.334H20.0335C20.9087 23.334 21.7481 22.9863 22.3669 22.3674C22.9858 21.7486 23.3335 20.9092 23.3335 20.034V11.9673C23.3335 10.1432 21.8577 8.66732 20.0335 8.66732H11.9668ZM20.8127 10.0423C21.1166 10.0423 21.408 10.163 21.6229 10.3779C21.8378 10.5928 21.9585 10.8843 21.9585 11.1882C21.9585 11.492 21.8378 11.7835 21.6229 11.9984C21.408 12.2133 21.1166 12.334 20.8127 12.334C20.5088 12.334 20.2173 12.2133 20.0024 11.9984C19.7875 11.7835 19.6668 11.492 19.6668 11.1882C19.6668 10.8843 19.7875 10.5928 20.0024 10.3779C20.2173 10.163 20.5088 10.0423 20.8127 10.0423ZM16.0002 11.4173C17.2157 11.4173 18.3815 11.9002 19.2411 12.7597C20.1006 13.6193 20.5835 14.7851 20.5835 16.0007C20.5835 17.2162 20.1006 18.382 19.2411 19.2416C18.3815 20.1011 17.2157 20.584 16.0002 20.584C14.7846 20.584 13.6188 20.1011 12.7593 19.2416C11.8997 18.382 11.4168 17.2162 11.4168 16.0007C11.4168 14.7851 11.8997 13.6193 12.7593 12.7597C13.6188 11.9002 14.7846 11.4173 16.0002 11.4173ZM16.0002 13.2507C15.2708 13.2507 14.5713 13.5404 14.0556 14.0561C13.5399 14.5718 13.2502 15.2713 13.2502 16.0007C13.2502 16.73 13.5399 17.4295 14.0556 17.9452C14.5713 18.4609 15.2708 18.7507 16.0002 18.7507C16.7295 18.7507 17.429 18.4609 17.9447 17.9452C18.4604 17.4295 18.7502 16.73 18.7502 16.0007C18.7502 15.2713 18.4604 14.5718 17.9447 14.0561C17.429 13.5404 16.7295 13.2507 16.0002 13.2507Z" fill="#9B9B9B"/>
</svg>
