<svg width="32" height="32" viewBox="0 0 32 32" fill="none" xmlns="http://www.w3.org/2000/svg">
<path fill-rule="evenodd" clip-rule="evenodd" d="M24.9336 11.1562C25.0727 10.7156 24.9336 10.3953 24.3184 10.3953H22.2727C21.7566 10.3953 21.5184 10.6758 21.3793 10.9758C21.3793 10.9758 20.327 13.5383 18.8574 15.1996C18.3809 15.6801 18.1625 15.8402 17.9043 15.8402C17.7652 15.8402 17.5863 15.6801 17.5863 15.2398V11.1355C17.5863 10.6152 17.4277 10.375 16.9906 10.375H13.7734C13.4555 10.375 13.257 10.6152 13.257 10.8555C13.257 11.3559 13.9918 11.4762 14.0711 12.8773V15.9219C14.0711 16.5824 13.9539 16.7031 13.6938 16.7031C12.9988 16.7031 11.3109 14.1207 10.2984 11.1781C10.1016 10.5953 9.90156 10.375 9.38516 10.375H7.31992C6.72422 10.375 6.625 10.6551 6.625 10.9555C6.625 11.4961 7.31992 14.2184 9.86172 17.8215C11.5496 20.2824 13.9523 21.6051 16.1168 21.6051C17.4277 21.6051 17.5863 21.3047 17.5863 20.8043V18.9426C17.5863 18.3422 17.7055 18.2422 18.1227 18.2422C18.4203 18.2422 18.9566 18.402 20.168 19.5832C21.5578 20.9844 21.7961 21.625 22.5707 21.625H24.616C25.2117 21.625 25.4898 21.3246 25.3309 20.7441C25.1523 20.1637 24.477 19.323 23.6031 18.3223C23.1266 17.7621 22.4117 17.1414 22.1934 16.841C21.8957 16.4406 21.975 16.2805 22.1934 15.9203C22.1734 15.9203 24.6758 12.357 24.9336 11.1547" fill="#9B9B9B"/>
</svg>
