<svg width="19" height="19" viewBox="0 0 19 19" fill="none" xmlns="http://www.w3.org/2000/svg">
<path d="M14.6518 19H14.6516C14.0447 19 12.7739 18.8988 11.0824 18.2216C9.01453 17.3937 6.97242 15.9783 5.01277 14.0145C1.10776 10.101 -0.32676 7.19046 0.0611722 3.9687C0.243789 2.35224 0.935606 1.54387 1.89282 0.578744C2.26546 0.205291 2.75612 0 3.27532 0C3.77357 0 4.23863 0.191244 4.58505 0.538379L7.38146 3.34087C8.1121 4.07566 8.09516 5.28541 7.3441 6.03797L6.54391 6.83878C6.32668 7.05617 6.28368 7.39398 6.43956 7.66009C7.06792 8.73333 7.63848 9.58013 8.53918 10.4844C9.3331 11.28 10.1491 11.8915 11.3553 12.5947C11.458 12.6545 11.5752 12.6863 11.6939 12.6862C11.8741 12.6862 12.0435 12.616 12.1709 12.4886L12.9757 11.6831C13.3468 11.3113 13.8373 11.1063 14.3566 11.1063C14.8544 11.1063 15.3194 11.2971 15.6662 11.6434L18.4633 14.4466C19.1932 15.1808 19.1763 16.391 18.4265 17.1451L18.4225 17.1492C17.4196 18.1327 16.6422 18.7916 15.0398 18.9824C15.0381 18.9825 15.0364 18.9829 15.0348 18.983C14.9882 18.9882 14.8581 18.9998 14.6515 18.9998L14.6518 19ZM3.2756 0.903936C2.99733 0.903936 2.73308 1.01513 2.53177 1.21703C1.53576 2.22119 1.09663 2.84043 0.957164 4.07389C0.605943 6.98889 1.96591 9.68284 5.65069 13.3756C10.0214 17.7558 13.6451 18.0963 14.6519 18.0963H14.652C14.8181 18.0963 14.9144 18.0874 14.9367 18.0851C16.2115 17.9326 16.8128 17.464 17.79 16.5059C18.1884 16.1034 18.2045 15.4668 17.8256 15.0856L15.0297 12.2836C14.8537 12.1078 14.6147 12.0107 14.3572 12.0107C14.0788 12.0107 13.8147 12.1215 13.6137 12.323L12.8087 13.1286C12.5111 13.4264 12.1154 13.5905 11.6945 13.5905C11.4167 13.5905 11.1428 13.5164 10.9025 13.3763C10.0126 12.8576 8.96041 12.1843 7.90191 11.1235C6.93311 10.151 6.3268 9.25259 5.66254 8.11786C5.29891 7.49669 5.39956 6.70782 5.90747 6.1996L6.70733 5.39912C7.10702 4.99855 7.12362 4.36157 6.74388 3.97973L3.94797 1.17773C3.77196 1.00118 3.53328 0.904021 3.27595 0.904021L3.2756 0.903936Z" fill="#9B9B9B"/>
</svg>
